<svg xmlns="http://www.w3.org/2000/svg" version="1.1" xmlns:xlink="http://www.w3.org/1999/xlink" xmlns:svgjs="http://svgjs.dev/svgjs" width="1500" height="231" viewBox="0 0 1500 231"><g transform="matrix(1,0,0,1,-0.9090909090909918,0.7145399133586778)"><svg viewBox="0 0 396 61" data-background-color="#ffffff" preserveAspectRatio="xMidYMid meet" height="231" width="1500" xmlns="http://www.w3.org/2000/svg" xmlns:xlink="http://www.w3.org/1999/xlink"><g id="tight-bounds" transform="matrix(1,0,0,1,0.2400000000000091,-0.18868802906874294)"><svg viewBox="0 0 395.52 61.37737605813751" height="61.37737605813751" width="395.52"><g><svg viewBox="0 0 655.037241119568 101.64964371025641" height="61.37737605813751" width="395.52"><g><svg viewBox="0 0 395.52 101.64964371025641" height="101.64964371025641" width="395.52"><g id="textblocktransform"><svg viewBox="0 0 395.52 101.64964371025641" height="101.64964371025641" width="395.52" id="textblock"><g><svg viewBox="0 0 395.52 63.902646264626455" height="63.902646264626455" width="395.52"><g transform="matrix(1,0,0,1,0,0)"><svg width="395.52" viewBox="0.65 -28.55 222.18 35.900000000000006" height="63.902646264626455" data-palette-color="#332885"><g class="wordmark-text-0" data-fill-palette-color="primary" id="text-0"><path d="M2.25 7.35L2.25 7.35Q1.65 7.35 1.15 7.08 0.65 6.8 0.65 6L0.65 6Q0.65 5.9 0.78 5.33 0.9 4.75 1.1 3.65L1.1 3.65 1.4 3.65Q2.1 3.85 2.5 3.95 2.9 4.05 3.45 4.05L3.45 4.05Q4.4 4.05 5.08 3.58 5.75 3.1 6.1 1.65 6.45 0.2 6.45-2.6L6.45-2.6 6.45-25.55 3-27.25 3-28 14.15-28 14.15-27.25 10.7-25.55 10.7-9.4Q10.7-4.2 9.68-0.8 8.65 2.6 7.1 4.25L7.1 4.25Q5.5 6 4.5 6.68 3.5 7.35 2.25 7.35ZM29.6 0.5L29.6 0.5Q26.95 0.5 25.02-0.05 23.1-0.6 21.1-1.55L21.1-1.55 20.65-8.3 21.45-8.3 23.8-3.8Q25.25-2.7 26.77-2.27 28.3-1.85 29.9-1.85L29.9-1.85Q32.75-1.85 34.27-3.03 35.8-4.2 35.8-6.6L35.8-6.6Q35.8-8.4 34.85-9.38 33.9-10.35 32.07-11.18 30.25-12 27.6-13.25L27.6-13.25Q24.45-14.75 23.07-16.3 21.7-17.85 21.7-20.6L21.7-20.6Q21.7-22.7 22.95-24.5 24.2-26.3 26.22-27.43 28.25-28.55 30.7-28.55L30.7-28.55Q32.75-28.55 34.5-28.03 36.25-27.5 37.95-26.7L37.95-26.7 38.3-20.2 37.5-20.2 35.6-24.3Q34.4-25.3 33.3-25.75 32.2-26.2 30.75-26.2L30.75-26.2Q28.25-26.2 26.82-24.95 25.4-23.7 25.4-21.65L25.4-21.65Q25.4-20.3 26.05-19.4 26.7-18.5 28.07-17.73 29.45-16.95 31.65-15.9L31.65-15.9Q34.5-14.55 36.2-13.43 37.9-12.3 38.67-10.9 39.45-9.5 39.45-7.35L39.45-7.35Q39.45-5.05 38.17-3.28 36.9-1.5 34.67-0.5 32.45 0.5 29.6 0.5ZM64.15 0L50.95 0 50.95-0.8 55.4-2.45 55.4-25.5 47.7-25.5 45.25-19.65 44.45-19.65 44.45-28 70.65-28 70.65-19.65 69.85-19.65 67.35-25.5 59.65-25.5 59.65-2.45 64.15-0.8 64.15 0ZM87.24 0L76.14 0 76.14-0.8 79.74-2.45 79.74-25.55 76.14-27.2 76.14-28 87.24-28Q91.89-28 94.57-26.1 97.24-24.2 97.24-20.9L97.24-20.9Q97.24-18.45 95.72-16.7 94.19-14.95 91.49-13.95L91.49-13.95 99.24-2.3 102.54-0.8 102.54 0 95.44 0 87.34-12.75 83.94-12.75 83.94-2.5 87.24-0.8 87.24 0ZM86.54-25.5L86.54-25.5 83.94-25.5 83.94-15.25 86.79-15.25Q89.49-15.25 91.12-16.63 92.74-18 92.74-20.4L92.74-20.4Q92.74-22.95 91.12-24.23 89.49-25.5 86.54-25.5ZM113.24 0L103.94 0 103.94-0.8 106.49-2.1 117.59-28.25 119.69-28.25 130.74-2.15 133.64-0.8 133.64 0 122.74 0 122.74-0.8 126.24-2.2 123.09-9.8 112.69-9.8 109.54-2.1 113.24-0.8 113.24 0ZM117.84-22.4L113.74-12.3 122.04-12.3 117.84-22.4ZM152.59 0.25L150.79 0.25 139.89-25.9 137.04-27.2 137.04-28 148.09-28 148.09-27.2 144.59-25.8 144.59-25.65 152.44-6.3 152.69-6.3 160.49-25.65 160.49-25.8 156.84-27.2 156.84-28 166.09-28 166.09-27.2 163.59-25.85 152.59 0.25ZM193.69 0L171.09 0 171.09-0.8 174.64-2.45 174.64-25.55 171.09-27.2 171.09-28 192.44-28 192.44-20.9 191.64-20.9 189.24-25.5 178.89-25.5 178.89-15.75 186.44-15.75 187.94-19.15 188.74-19.15 188.74-9.9 187.94-9.9 186.44-13.25 178.89-13.25 178.89-2.5 190.39-2.5 192.89-7.9 193.69-7.9 193.69 0ZM222.83 0L200.43 0 200.43-0.8 203.98-2.45 203.98-25.55 200.43-27.2 200.43-28 212.28-28 212.28-27.2 208.23-25.55 208.23-2.5 219.08-2.5 222.03-9.6 222.83-9.6 222.83 0Z" fill="#332885" data-fill-palette-color="primary"></path></g></svg></g></svg></g><g transform="matrix(1,0,0,1,163.310208,78.98852738419441)"><svg viewBox="0 0 232.209792 22.661116326061997" height="22.661116326061997" width="232.209792"><g transform="matrix(1,0,0,1,0,0)"><svg width="232.209792" viewBox="2.44 -38.31 510.3 49.81" height="22.661116326061997" data-palette-color="#332885"><path d="M19.09 0L19.09-4.2 22.66-4.2 22.66-15.75Q22.66-18.65 21.18-20.15 19.7-21.66 16.94-21.66L16.94-21.66Q15.36-21.66 13.75-20.9 12.13-20.14 10.69-19.02L10.69-19.02 10.69-4.2 14.26-4.2 14.26 0 2.44 0 2.44-4.2 5.96-4.2 5.96-21.09 2.44-21.09 2.44-25.29 10.5-25.29 10.5-22.31 10.55-22.31Q11.35-23.02 12.27-23.66 13.18-24.29 14.18-24.76 15.19-25.22 16.27-25.49 17.36-25.76 18.55-25.76L18.55-25.76Q20.58-25.76 22.22-25.2 23.85-24.63 25-23.49 26.15-22.34 26.77-20.54 27.39-18.75 27.39-16.31L27.39-16.31 27.39-4.2 30.91-4.2 30.91 0 19.09 0ZM58.3-12.06L40.09-12.06Q40.09-10.99 40.24-10.1 40.4-9.2 40.7-8.4L40.7-8.4Q41.6-5.96 43.59-4.72 45.58-3.49 48.09-3.49L48.09-3.49Q50.07-3.49 51.94-4.04 53.81-4.59 55.86-5.76L55.86-5.76 57.69-2.66Q55.2-0.95 52.68-0.12 50.17 0.71 47.46 0.71L47.46 0.71Q44.89 0.71 42.71-0.15 40.52-1 38.95-2.69 37.38-4.37 36.48-6.88 35.59-9.4 35.59-12.74L35.59-12.74Q35.59-15.45 36.35-17.86 37.11-20.26 38.61-22.06 40.11-23.85 42.33-24.9 44.55-25.95 47.51-25.95L47.51-25.95Q50.36-25.95 52.28-25.09 54.2-24.22 55.41-22.79 56.61-21.36 57.24-19.53 57.86-17.7 58.1-15.8L58.1-15.8Q58.23-14.87 58.26-13.92 58.3-12.96 58.3-12.06L58.3-12.06ZM47.19-22.14L47.19-22.14Q45.6-22.14 44.42-21.69 43.23-21.24 42.4-20.4 41.57-19.56 41.07-18.33 40.57-17.11 40.33-15.6L40.33-15.6 53.44-15.6Q53.34-17.02 52.99-18.21 52.63-19.41 51.9-20.29 51.17-21.17 50.02-21.66 48.87-22.14 47.19-22.14ZM78.97 0L78.97-4.2 80.41-4.2 75.39-10.45 70.48-4.2 71.72-4.2 71.72 0 63.33 0 63.33-4.2 65.38-4.2 73.07-13.16 65.84-21.09 63.28-21.09 63.28-25.29 71.67-25.29 71.67-21.09 70.72-21.09 75.39-15.09 80.1-21.09 78.88-21.09 78.88-25.29 87.28-25.29 87.28-21.09 85.1-21.09 77.95-12.84 85.52-4.2 87.37-4.2 87.37 0 78.97 0ZM98.41-33.45L98.41-25.29 104.34-25.29 104.34-21.61 98.36-21.61 98.28-7.01Q98.28-5.52 98.63-4.59 98.97-3.66 99.72-3.31 100.48-2.95 101.43-2.95L101.43-2.95Q102.46-2.95 103.24-3.14 104.02-3.32 104.95-3.76L104.95-3.76 106-0.71Q104.83-0.1 103.53 0.26 102.24 0.61 100.48 0.61L100.48 0.61Q98.82 0.61 97.59 0.21 96.35-0.2 95.51-1.15 94.67-2.1 94.26-3.7 93.84-5.3 93.84-7.69L93.84-7.69 93.91-21.61 89.89-21.61 89.89-25.29 93.96-25.29 93.96-31.35 98.41-33.45ZM109.29-21.09L109.29-25.29 117.49-25.29 117.49 1.95Q117.49 4.13 116.93 5.87 116.37 7.62 115.31 8.85 114.25 10.08 112.71 10.77 111.17 11.45 109.19 11.5L109.19 11.5 108.73 8.11Q110.9 7.79 111.89 6.04 112.88 4.3 112.88 1.44L112.88 1.44 112.88-21.09 109.29-21.09ZM112.29-34.25L112.29-34.25Q112.29-34.84 112.53-35.35 112.76-35.86 113.15-36.25 113.54-36.65 114.06-36.88 114.59-37.11 115.2-37.11L115.2-37.11Q115.79-37.11 116.31-36.88 116.84-36.65 117.23-36.25 117.62-35.86 117.85-35.35 118.08-34.84 118.08-34.25L118.08-34.25Q118.08-33.64 117.85-33.11 117.62-32.57 117.23-32.17 116.84-31.76 116.31-31.53 115.79-31.3 115.2-31.3L115.2-31.3Q114.59-31.3 114.06-31.53 113.54-31.76 113.15-32.17 112.76-32.57 112.53-33.11 112.29-33.64 112.29-34.25ZM139.03-18.51Q139.03-19.53 138.55-20.25 138.07-20.97 137.32-21.42 136.56-21.88 135.63-22.08 134.7-22.29 133.83-22.29L133.83-22.29Q132.85-22.29 132.03-22.07 131.21-21.85 130.63-21.44 130.04-21.02 129.71-20.42 129.38-19.82 129.38-19.09L129.38-19.09Q129.38-17.82 130.15-17.08 130.92-16.33 132.73-15.7L132.73-15.7 137.59-13.99Q140.71-12.94 142.15-11.13 143.59-9.33 143.59-6.81L143.59-6.81Q143.59-5.13 142.92-3.72 142.25-2.32 141.02-1.33 139.78-0.34 138.05 0.21 136.32 0.76 134.19 0.76L134.19 0.76Q131.24 0.76 129.38-0.2 127.53-1.15 126.53-2.71L126.53-2.71 123.99-2.71 123.99-6.91 129.04-6.91Q129.04-5.86 129.49-5.11 129.94-4.37 130.69-3.91 131.43-3.44 132.37-3.22 133.31-3 134.29-3L134.29-3Q135.24-3 136.12-3.23 137-3.47 137.67-3.92 138.34-4.37 138.73-5 139.12-5.64 139.12-6.45L139.12-6.45Q139.12-7.67 138.33-8.52 137.54-9.38 135.63-10.06L135.63-10.06 130.8-11.87Q127.84-12.92 126.42-14.54 124.99-16.16 124.99-18.6L124.99-18.6Q124.99-20.21 125.59-21.58 126.18-22.95 127.32-23.94 128.45-24.93 130.09-25.49 131.73-26.05 133.83-26.05L133.83-26.05Q136.54-26.05 138.37-25.29 140.2-24.54 141.66-22.71L141.66-22.71 144.03-22.71 144.03-18.51 139.03-18.51ZM146.23 0Q146.23 0 146.23 0ZM166.93-33.45L166.93-25.29 172.86-25.29 172.86-21.61 166.88-21.61 166.8-7.01Q166.8-5.52 167.15-4.59 167.49-3.66 168.24-3.31 169-2.95 169.95-2.95L169.95-2.95Q170.98-2.95 171.76-3.14 172.54-3.32 173.47-3.76L173.47-3.76 174.52-0.71Q173.35-0.1 172.05 0.26 170.76 0.61 169 0.61L169 0.61Q167.34 0.61 166.11 0.21 164.88-0.2 164.03-1.15 163.19-2.1 162.78-3.7 162.36-5.3 162.36-7.69L162.36-7.69 162.43-21.61 158.41-21.61 158.41-25.29 162.48-25.29 162.48-31.35 166.93-33.45ZM178.54-33.79L178.54-37.99 186.55-37.99 186.55-22.51 186.7-22.51Q187.38-23.19 188.27-23.79 189.16-24.39 190.14-24.83 191.12-25.27 192.17-25.51 193.22-25.76 194.36-25.76L194.36-25.76Q196.39-25.76 198.03-25.2 199.66-24.63 200.81-23.49 201.96-22.34 202.58-20.54 203.2-18.75 203.2-16.31L203.2-16.31 203.2-4.2 207.01-4.2 207.01 0 195 0 195-4.2 198.47-4.2 198.47-15.75Q198.47-18.65 196.99-20.15 195.51-21.66 192.75-21.66L192.75-21.66Q191.19-21.66 189.58-20.91 187.97-20.17 186.55-19.04L186.55-19.04 186.55-4.2 190.21-4.2 190.21 0 178.2 0 178.2-4.2 182.01-4.2 182.01-33.79 178.54-33.79ZM233.77-12.06L215.55-12.06Q215.55-10.99 215.71-10.1 215.87-9.2 216.16-8.4L216.16-8.4Q217.07-5.96 219.06-4.72 221.05-3.49 223.56-3.49L223.56-3.49Q225.54-3.49 227.41-4.04 229.27-4.59 231.33-5.76L231.33-5.76 233.16-2.66Q230.67-0.95 228.15-0.12 225.64 0.71 222.93 0.71L222.93 0.71Q220.36 0.71 218.18-0.15 215.99-1 214.42-2.69 212.84-4.37 211.95-6.88 211.06-9.4 211.06-12.74L211.06-12.74Q211.06-15.45 211.82-17.86 212.58-20.26 214.08-22.06 215.58-23.85 217.8-24.9 220.02-25.95 222.98-25.95L222.98-25.95Q225.83-25.95 227.75-25.09 229.67-24.22 230.87-22.79 232.08-21.36 232.7-19.53 233.33-17.7 233.57-15.8L233.57-15.8Q233.69-14.87 233.73-13.92 233.77-12.96 233.77-12.06L233.77-12.06ZM222.66-22.14L222.66-22.14Q221.07-22.14 219.89-21.69 218.7-21.24 217.87-20.4 217.04-19.56 216.54-18.33 216.04-17.11 215.8-15.6L215.8-15.6 228.91-15.6Q228.81-17.02 228.46-18.21 228.1-19.41 227.37-20.29 226.64-21.17 225.49-21.66 224.34-22.14 222.66-22.14ZM237.5 0Q237.5 0 237.5 0ZM249.83-33.79L249.83-37.99 258.03-37.99 258.03-23.19Q259.64-24.44 261.54-25.17 263.45-25.9 265.48-25.9L265.48-25.9Q267.97-25.9 270.04-24.98 272.12-24.05 273.62-22.36 275.12-20.68 275.95-18.32 276.78-15.97 276.78-13.11L276.78-13.11Q276.78-10.06 275.85-7.58 274.92-5.1 273.28-3.32 271.63-1.54 269.36-0.57 267.09 0.39 264.38 0.39L264.38 0.39Q262.5 0.39 260.85-0.16 259.2-0.71 258.03-1.59L258.03-1.59 258.03 0 253.49 0 253.49-33.79 249.83-33.79ZM264.28-21.9L264.28-21.9Q262.5-21.9 260.86-21.17 259.23-20.43 258.03-19.19L258.03-19.19 258.03-5.59Q258.81-4.79 260.32-4.16 261.84-3.54 264.13-3.54L264.13-3.54Q265.7-3.54 267.14-4.13 268.58-4.71 269.67-5.9 270.77-7.08 271.43-8.84 272.09-10.6 272.09-12.94L272.09-12.94Q272.09-15.09 271.47-16.75 270.85-18.41 269.78-19.56 268.72-20.7 267.31-21.3 265.89-21.9 264.28-21.9ZM303.97-12.06L285.76-12.06Q285.76-10.99 285.92-10.1 286.08-9.2 286.37-8.4L286.37-8.4Q287.27-5.96 289.26-4.72 291.25-3.49 293.77-3.49L293.77-3.49Q295.75-3.49 297.61-4.04 299.48-4.59 301.53-5.76L301.53-5.76 303.36-2.66Q300.87-0.95 298.36-0.12 295.84 0.71 293.13 0.71L293.13 0.71Q290.57 0.71 288.39-0.15 286.2-1 284.63-2.69 283.05-4.37 282.16-6.88 281.27-9.4 281.27-12.74L281.27-12.74Q281.27-15.45 282.03-17.86 282.78-20.26 284.28-22.06 285.79-23.85 288.01-24.9 290.23-25.95 293.18-25.95L293.18-25.95Q296.04-25.95 297.96-25.09 299.87-24.22 301.08-22.79 302.29-21.36 302.91-19.53 303.53-17.7 303.78-15.8L303.78-15.8Q303.9-14.87 303.94-13.92 303.97-12.96 303.97-12.06L303.97-12.06ZM292.87-22.14L292.87-22.14Q291.28-22.14 290.09-21.69 288.91-21.24 288.08-20.4 287.25-19.56 286.75-18.33 286.25-17.11 286.01-15.6L286.01-15.6 299.12-15.6Q299.02-17.02 298.66-18.21 298.31-19.41 297.58-20.29 296.85-21.17 295.7-21.66 294.55-22.14 292.87-22.14ZM324.75-18.51Q324.75-19.53 324.27-20.25 323.8-20.97 323.04-21.42 322.28-21.88 321.35-22.08 320.43-22.29 319.55-22.29L319.55-22.29Q318.57-22.29 317.75-22.07 316.94-21.85 316.35-21.44 315.76-21.02 315.43-20.42 315.1-19.82 315.1-19.09L315.1-19.09Q315.1-17.82 315.87-17.08 316.64-16.33 318.45-15.7L318.45-15.7 323.31-13.99Q326.43-12.94 327.87-11.13 329.31-9.33 329.31-6.81L329.31-6.81Q329.31-5.13 328.64-3.72 327.97-2.32 326.74-1.33 325.5-0.34 323.77 0.21 322.04 0.76 319.91 0.76L319.91 0.76Q316.96 0.76 315.1-0.2 313.25-1.15 312.25-2.71L312.25-2.71 309.71-2.71 309.71-6.91 314.76-6.91Q314.76-5.86 315.21-5.11 315.67-4.37 316.41-3.91 317.16-3.44 318.09-3.22 319.03-3 320.01-3L320.01-3Q320.96-3 321.84-3.23 322.72-3.47 323.39-3.92 324.06-4.37 324.45-5 324.85-5.64 324.85-6.45L324.85-6.45Q324.85-7.67 324.05-8.52 323.26-9.38 321.35-10.06L321.35-10.06 316.52-11.87Q313.57-12.92 312.14-14.54 310.71-16.16 310.71-18.6L310.71-18.6Q310.71-20.21 311.31-21.58 311.91-22.95 313.04-23.94 314.18-24.93 315.81-25.49 317.45-26.05 319.55-26.05L319.55-26.05Q322.26-26.05 324.09-25.29 325.92-24.54 327.38-22.71L327.38-22.71 329.75-22.71 329.75-18.51 324.75-18.51ZM341.71-33.45L341.71-25.29 347.65-25.29 347.65-21.61 341.66-21.61 341.59-7.01Q341.59-5.52 341.93-4.59 342.27-3.66 343.03-3.31 343.79-2.95 344.74-2.95L344.74-2.95Q345.77-2.95 346.55-3.14 347.33-3.32 348.26-3.76L348.26-3.76 349.31-0.71Q348.13-0.1 346.84 0.26 345.55 0.61 343.79 0.61L343.79 0.61Q342.13 0.61 340.9 0.21 339.66-0.2 338.82-1.15 337.98-2.1 337.56-3.7 337.15-5.3 337.15-7.69L337.15-7.69 337.22-21.61 333.19-21.61 333.19-25.29 337.27-25.29 337.27-31.35 341.71-33.45ZM350.55 0Q350.55 0 350.55 0ZM361.97-21.09L361.97-25.29 369.98-25.29 369.98-21.09 368.81-21.09 373.23-4.96 379.28-25.29 383.09-25.29 388.88-5 393.49-21.09 392.03-21.09 392.03-25.29 400.03-25.29 400.03-21.09 397.86-21.09 390.93 0.39 386.73 0.39 380.99-19.8 375.28 0.39 371.03 0.39 364.14-21.09 361.97-21.09ZM418.83 0L418.83-2.34Q417.39-1 415.64-0.15 413.9 0.71 411.68 0.71L411.68 0.71Q409.82 0.71 408.27 0.12 406.72-0.46 405.6-1.48 404.47-2.49 403.85-3.83 403.23-5.18 403.23-6.69L403.23-6.69Q403.23-8.3 403.71-9.55 404.18-10.79 404.97-11.71 405.77-12.62 406.83-13.24 407.89-13.87 409.05-14.25 410.21-14.62 411.42-14.78 412.63-14.94 413.73-14.94L413.73-14.94Q415.48-14.94 416.68-14.83 417.88-14.72 418.85-14.53L418.85-14.53 418.88-16.6Q418.88-17.94 418.49-18.93 418.1-19.92 417.39-20.57 416.68-21.22 415.69-21.53 414.7-21.85 413.48-21.85L413.48-21.85Q412.34-21.85 411.29-21.69 410.24-21.53 409.32-21.28 408.4-21.02 407.64-20.69 406.87-20.36 406.33-20L406.33-20 404.84-23.14Q405.74-23.73 406.82-24.23 407.89-24.73 409.08-25.09 410.26-25.44 411.49-25.65 412.73-25.85 413.92-25.85L413.92-25.85Q416.12-25.85 417.88-25.33 419.64-24.8 420.86-23.71 422.08-22.61 422.74-20.91 423.4-19.21 423.4-16.85L423.4-16.85 423.37-4.2 426.18-4.2 426.18 0 418.83 0ZM412.68-3.1L412.68-3.1Q413.58-3.1 414.48-3.32 415.39-3.54 416.19-3.92 417-4.3 417.68-4.8 418.37-5.3 418.83-5.83L418.83-5.83 418.85-11.55 413.58-11.55Q412.26-11.55 411.18-11.25 410.09-10.96 409.3-10.4 408.5-9.84 408.06-9.01 407.62-8.18 407.62-7.1L407.62-7.1Q407.62-6.1 407.99-5.36 408.36-4.61 409.03-4.11 409.7-3.61 410.63-3.36 411.55-3.1 412.68-3.1ZM429.62-21.09L429.62-25.29 439.21-25.29 439.21-21.09 436.21-21.09 442.14-4.96 448.34-21.09 445.37-21.09 445.37-25.29 454.96-25.29 454.96-21.09 452.35-21.09 441.09 7.3 444.56 7.3 444.56 11.5 434.35 11.5 434.35 7.3 437.43 7.3 440.12 0.34 431.67-21.09 429.62-21.09ZM457.57 0Q457.57 0 457.57 0ZM468.75-14.77L468.75-18.58 489.33-28.91 489.33-24.39 472.78-16.7 489.33-9.01 489.33-4.49 468.75-14.77ZM493.84 0.71L508.49-38.31 512.74-38.31 498.09 0.71 493.84 0.71Z" opacity="1" transform="matrix(1,0,0,1,0,0)" fill="#332885" class="slogan-text-1" data-fill-palette-color="secondary" id="text-1"></path></svg></g></svg></g></svg></g></svg></g><g transform="matrix(1,0,0,1,410.6058811195679,15.34550041082602)"><svg viewBox="0 0 244.43136 70.95864288860437" height="70.95864288860437" width="244.43136"><g><svg xmlns="http://www.w3.org/2000/svg" xmlns:xlink="http://www.w3.org/1999/xlink" version="1.1" x="0" y="0" viewBox="3.1399999999999992 37.881 93.72 27.207000000000008" enable-background="new 0 0 100 100" xml:space="preserve" height="70.95864288860437" width="244.43136" class="icon-icon-0" data-fill-palette-color="accent" id="icon-0"><g fill="#332885" data-fill-palette-color="accent"><path d="M74.145 55.243c-2.715 0-4.922 2.208-4.922 4.923 0 2.714 2.207 4.922 4.922 4.922s4.924-2.208 4.924-4.922C79.066 57.451 76.859 55.243 74.145 55.243zM74.145 62.115c-1.076 0-1.949-0.873-1.949-1.949s0.873-1.95 1.949-1.95c1.078 0 1.951 0.874 1.951 1.95S75.223 62.115 74.145 62.115z" fill="#332885" data-fill-palette-color="accent"></path><path d="M24.381 55.243c-2.715 0-4.922 2.208-4.922 4.923 0 2.714 2.208 4.922 4.922 4.922 2.714 0 4.923-2.208 4.923-4.922C29.304 57.451 27.095 55.243 24.381 55.243zM24.381 62.115c-1.077 0-1.951-0.873-1.951-1.949s0.874-1.95 1.951-1.95c1.077 0 1.95 0.874 1.95 1.95S25.458 62.115 24.381 62.115z" fill="#332885" data-fill-palette-color="accent"></path><path d="M71.891 54.792H26.635c2.098 0.884 3.573 2.96 3.573 5.374 0 0.678-0.117 1.328-0.332 1.934h38.772c-0.213-0.604-0.33-1.256-0.33-1.934C68.318 57.752 69.793 55.676 71.891 54.792z" fill="#332885" data-fill-palette-color="accent"></path><path d="M95.541 39.78c-0.074-0.186-0.201-0.345-0.366-0.458-0.087-0.059-2.142-1.441-6.058-1.441H34.964c-5.821 0-12.068 0.365-17.139 1.001-4.723 0.593-6.865 1.186-7.88 1.659-2.418 0.434-3.226 0.81-3.822 1.752-0.015 0.022-0.026 0.045-0.037 0.068l-1.061 2.555c-0.07 0.169-0.031 0.365 0.099 0.494l0.282 0.28c0.085 0.086 0.2 0.131 0.319 0.131 0.029 0 0.059-0.002 0.088-0.008 0.147-0.028 0.271-0.13 0.329-0.268L7.5 42.289c0.02-0.045 0.03-0.091 0.034-0.137 0.274-0.157 0.646-0.295 1.185-0.431-1.697 2.801-3.886 7.445-4.94 11.539-0.089 0.346 0.006 0.646 0.088 0.854-0.084 0.317-0.174 0.62-0.262 0.917-0.239 0.802-0.465 1.558-0.465 2.348 0 1.835 0.326 2.985 0.97 3.417 0.12 0.08 0.255 0.136 0.397 0.16 0.277 0.045 6.825 1.144 10.478 1.144h3.898c-0.214-0.604-0.331-1.254-0.331-1.933 0-2.414 1.476-4.49 3.572-5.374h-7.728c-2.156 0-3.846 0.13-5.149 0.309C9.232 55.131 9.21 55.16 9.182 55.18c-1.895 1.449-3.179 1.666-3.775 1.666-0.234 0-0.362-0.033-0.379-0.039C4.97 56.791 4.92 56.752 4.891 56.7c-0.029-0.054-0.036-0.115-0.019-0.173l0.199-0.682c0.015-0.055 0.049-0.1 0.096-0.129 0.088-0.057 2.25-1.376 9.23-1.376h9.913c0.024-0.001 0.047-0.001 0.07-0.001s0.046 0 0.069 0.001h49.624c0.024-0.001 0.047-0.001 0.069-0.001 0.021 0 0.047 0 0.067 0.001H95.48V51.68c0-0.076 0.039-0.146 0.103-0.188l0.56-0.366c0.035-0.024 0.078-0.037 0.123-0.037h0.594v-0.266C96.859 43.132 95.596 39.913 95.541 39.78zM10.198 52.152H6.386c1.164-3.167 3.064-6.946 3.937-8.643 0.649-1.26 3.588-1.994 11.278-1.994 0.853 0 2.358 0 4.358 0-3.811 1.39-6.582 4.06-8.945 6.34C14.625 50.162 12.562 52.152 10.198 52.152zM90.451 46.394c0 0.354-0.292 0.637-0.641 0.778 0 0-4.053 1.583-6.371 1.583-0.933 0-1.582 0-1.582 0s-38.438 0-59.86 0c-3.002 0-4.729 0.73-6.256 1.542 0.621-0.554 1.25-1.159 1.901-1.788 3.196-3.083 6.791-6.548 12.543-6.991 18.87 0 59.625 0 59.625 0 0.354 0 0.641 0.287 0.641 0.642V46.394z" fill="#332885" data-fill-palette-color="accent"></path><path d="M79.973 60.166c0 0.678-0.117 1.328-0.33 1.934h5.117c2.953 0 4.917-0.834 7.19-1.8l0.479-0.202c2.407-1.018 3.799-1.689 3.854-1.72 0.35-0.17 0.569-0.526 0.569-0.916v-2.67H76.398C78.496 55.676 79.973 57.752 79.973 60.166z" fill="#332885" data-fill-palette-color="accent"></path></g></svg></g></svg></g></svg></g><defs></defs></svg><rect width="395.52" height="61.37737605813751" fill="none" stroke="none" visibility="hidden"></rect></g></svg></g></svg>