<svg xmlns="http://www.w3.org/2000/svg" xmlns:xlink="http://www.w3.org/1999/xlink" xmlns:obilet="http://www.obilet.com/svg/bus" version="1.1" baseProfile="full" viewBox="0, 0, 940, 294" style="width: 19.1836734693878em; height: 6em;" class="bus-layout">


    <symbol id="front">
        <use xlink:href="#front-upper" x="0" y="0"></use>
        <path d="m69.9 249h-1.7c0.8-12 10.1-21 21.3-21h3.5c-1.8 12-11.4 21-23.1 21zm-23.4-25c0-11 7.2-20 17.1-23v47c-9.9-3-17.1-12-17.1-24zm28.3 0c0 2-1.4 4-3.1 4s-3.1-2-3.1-4c0-1 1.4-3 3.1-3s3.1 2 3.1 3zm18.1-4h-3.4c-11.1 0-20.2-9-21.2-20h1.6c11.5 0 21 9 23 20zm-23-24c-15.4 0-27.8 12-27.8 28s12.4 29 27.8 29 27.9-13 27.9-29-12.5-28-27.9-28z" class="wheel" stroke-width="2" fill="#fff"></path>
    </symbol>

    <symbol id="front-upper">
        <path d="m151 0.385s-87.1 4.48-112 10.3c-25.5 5.9-35.3 17.8-36.1 34.4-0.89 16.7-2.51 94.9-2.51 94.9l2.48 105s-2.61 18 17.7 27c0.8 0 15.2 5 16 6 21.6 8 64.4 9 64.4 9l66 3h41v-290c0 0.385-38 0.385-38 0.385h-19z" class="front" stroke="#BAC8CC" stroke-width=".873" fill="#F3F7F8"></path>
        <path d="m18.5 8.82l1.1 7.08s29.9-0.2 33.3 24.4c3.5 24.6 4.5 106 4.5 106" transform="translate(38 77.6) scale(-1 1) translate(-38 -77.6)"></path>
        <path d="m18.5 281l1.1-7s29.9 1 33.3-24c3.5-25 4.5-106 4.5-106" transform="translate(38 213) scale(-1 1) translate(-38 -213)"></path>
        <path d="m119 287l-16-59v-62" transform="translate(111 227) scale(-1 1) translate(-111 -227)"></path>
        <g transform="translate(1.86 55.2)">
            <path d="m0 7.96l19.5-7.08"></path>
            <path d="m8.88e-14 180l19.5-7" transform="translate(10.2 176) scale(-1 1) translate(-10.2 -176)"></path>
        </g>
        <g stroke-width="1.28" transform="translate(103 10) rotate(-3) translate(-36 -8)">
            <path d="m0.373 5.19l2.57 9.41 58.2-2.2 10.5-10.8" transform="translate(36 8.1) rotate(2) translate(-36 -8.1)"></path>
            <path d="m34.6 3.68v10"></path>
        </g>
    </symbol>


    <symbol id="back">
        <g class="back" stroke="#BAC8CC" stroke-width="1.2" fill="#F3F7F8">
            <path d="m2.52 0.268s8.08 0.186 10.4 0.882c2.3 0.7 7.3 1.98 8.1 10.2 1.3 12.9 1.2 11 1.5 14.5 0.9 11.4 5.7 108 5.7 108s-5.5 121-10.4 138c-1.9 7-2.3 12-6 15-1.2 1-2.22 1-6.72 2h-7.5l4.94-289z" transform="translate(12.9 145) rotate(-1) translate(-12.9 -145)"></path>
        </g>
    </symbol>


    <symbol id="side">
        <path d="M0 0 H60 0"></path>
    </symbol>

    <symbol id="arrow">
        <g transform="translate(-23078.387 -2762.999)">
            <g transform="translate(23078.387 2762.999)">
                <path d="M488.829,155.4l17.162,5.259L488.829,166.2v-2.71H482v-5.364h6.829Z" transform="translate(-459.709 -155.4)"></path>
                <path d="M327.7,331.5h4.968v5.142H327.7Z" transform="translate(-312.696 -328.733)"></path>
                <path d="M218.1,331.5h2.956v5.142H218.1Z" transform="translate(-208.272 -328.733)"></path>
                <path d="M114,331.5h2.956v5.142H114Z" transform="translate(-109.088 -328.733)"></path>
                <path d="M10,331.5h2.956v5.142H10Z" transform="translate(-10 -328.733)"></path>
            </g>
            <g transform="translate(23090.387 2776.203)">
                <path d="M499.162,155.4,482,160.659l17.162,5.538v-2.71h6.829v-5.364h-6.829Z" transform="translate(-482 -155.4)"></path>
                <path d="M332.668,331.5H327.7v5.142h4.968Z" transform="translate(-301.391 -328.733)"></path>
                <path d="M221.056,331.5H218.1v5.142h2.956Z" transform="translate(-184.603 -328.733)"></path>
                <path d="M116.956,331.5H114v5.142h2.956Z" transform="translate(-75.587 -328.733)"></path>
                <path d="M12.956,331.5H10v5.142h2.956Z" transform="translate(33.325 -328.733)"></path>
            </g>
        </g>
    </symbol>


    <symbol id="seat">
        <description>Represents a bus seat.</description>
        <rect x="1" y="4" width="45" height="40" rx="10" ry="10"></rect>
        <rect x="15" y="2" width="25" height="7" rx="5" ry="5"></rect>
        <rect x="15" y="39" width="25" height="7" rx="5" ry="5"></rect>
        <rect x="36" y="1" width="12" height="46" rx="6" ry="6"></rect>
    </symbol>


    <use class="s-front" xlink:href="#front" x="0" y="0"></use>
    <use class="s-back" xlink:href="#back" x="910" y="0"></use>
    <rect class="s-body" x="205" y="2" width="708" height="287"></rect>
    <a xlink:href="javascript:void(0);" class="male not-single-seat ins-init-condition-tracking" obilet:seat="3" obilet:pricing="1" obilet:available="no" obilet:childwarning="True">
        <use xlink:href="#seat" x="80" y="20" class="s-seat" width="53" height="49"></use>
        <text x="101" y="50" class="s-seat-n">3</text>
    </a>
    <a xlink:href="javascript:void(0);" class="male not-single-seat ins-init-condition-tracking" obilet:seat="2" obilet:pricing="1" obilet:available="no" obilet:childwarning="True">
        <use xlink:href="#seat" x="80" y="70" class="s-seat" width="53" height="49"></use>
        <text x="101" y="100" class="s-seat-n">2</text>
    </a>
    <use xlink:href="#side" class="s-side" x="140" y="0"></use>
    <a xlink:href="javascript:void(0);" class="female not-single-seat ins-init-condition-tracking" obilet:seat="6" obilet:pricing="1" obilet:available="no" obilet:childwarning="False">
        <use xlink:href="#seat" x="140" y="20" class="s-seat" width="53" height="49"></use>
        <text x="161" y="50" class="s-seat-n">6</text>
    </a>
    <a xlink:href="javascript:void(0);" class="female not-single-seat ins-init-condition-tracking" obilet:seat="5" obilet:pricing="1" obilet:available="no" obilet:childwarning="False">
        <use xlink:href="#seat" x="140" y="70" class="s-seat" width="53" height="49"></use>
        <text x="161" y="100" class="s-seat-n">5</text>
    </a>
    <a xlink:href="javascript:void(0);" class="male single-seat ins-init-condition-tracking" obilet:seat="1" obilet:pricing="1" obilet:available="no" obilet:childwarning="False">
        <use xlink:href="#seat" x="140" y="220" class="s-seat" width="53" height="49"></use>
        <text x="161" y="250" class="s-seat-n">1</text>
    </a>
    <use xlink:href="#side" class="s-side" x="140" y="289"></use>
    <use xlink:href="#side" class="s-side" x="200" y="0"></use>
    <a xlink:href="javascript:void(0);" class="male not-single-seat ins-init-condition-tracking" obilet:seat="9" obilet:pricing="1" obilet:available="no" obilet:childwarning="False">
        <use xlink:href="#seat" x="200" y="20" class="s-seat" width="53" height="49"></use>
        <text x="221" y="50" class="s-seat-n">9</text>
    </a>
    <a xlink:href="javascript:void(0);" class="male not-single-seat ins-init-condition-tracking" obilet:seat="8" obilet:pricing="1" obilet:available="no" obilet:childwarning="False">
        <use xlink:href="#seat" x="200" y="70" class="s-seat" width="53" height="49"></use>
        <text x="221" y="100" class="s-seat-n">8</text>
    </a>
    <a xlink:href="javascript:void(0);" class="male single-seat ins-init-condition-tracking" obilet:seat="4" obilet:pricing="1" obilet:available="no" obilet:childwarning="False">
        <use xlink:href="#seat" x="200" y="220" class="s-seat" width="53" height="49"></use>
        <text x="221" y="250" class="s-seat-n">4</text>
    </a>
    <use xlink:href="#side" class="s-side" x="200" y="289"></use>
    <use xlink:href="#side" class="s-side" x="260" y="0"></use>
    <a xlink:href="javascript:void(0);" class="male not-single-seat ins-init-condition-tracking" obilet:seat="12" obilet:pricing="1" obilet:available="no" obilet:childwarning="False">
        <use xlink:href="#seat" x="260" y="20" class="s-seat" width="53" height="49"></use>
        <text x="281" y="50" class="s-seat-n">12</text>
    </a>
    <a xlink:href="javascript:void(0);" class="male not-single-seat ins-init-condition-tracking" obilet:seat="11" obilet:pricing="1" obilet:available="no" obilet:childwarning="False">
        <use xlink:href="#seat" x="260" y="70" class="s-seat" width="53" height="49"></use>
        <text x="281" y="100" class="s-seat-n">11</text>
    </a>
    <a xlink:href="javascript:void(0);" class="female single-seat ins-init-condition-tracking" obilet:seat="7" obilet:pricing="1" obilet:available="no" obilet:childwarning="False">
        <use xlink:href="#seat" x="260" y="220" class="s-seat" width="53" height="49"></use>
        <text x="281" y="250" class="s-seat-n">7</text>
    </a>
    <use xlink:href="#side" class="s-side" x="260" y="289"></use>
    <use xlink:href="#side" class="s-side" x="320" y="0"></use>
    <a xlink:href="javascript:void(0);" class="male not-single-seat ins-init-condition-tracking" obilet:seat="15" obilet:pricing="1" obilet:available="no" obilet:childwarning="False">
        <use xlink:href="#seat" x="320" y="20" class="s-seat" width="53" height="49"></use>
        <text x="341" y="50" class="s-seat-n">15</text>
    </a>
    <a xlink:href="javascript:void(0);" class="male not-single-seat ins-init-condition-tracking" obilet:seat="14" obilet:pricing="1" obilet:available="no" obilet:childwarning="False">
        <use xlink:href="#seat" x="320" y="70" class="s-seat" width="53" height="49"></use>
        <text x="341" y="100" class="s-seat-n">14</text>
    </a>
    <a xlink:href="javascript:void(0);" class="female single-seat ins-init-condition-tracking" obilet:seat="10" obilet:pricing="1" obilet:available="no" obilet:childwarning="False">
        <use xlink:href="#seat" x="320" y="220" class="s-seat" width="53" height="49"></use>
        <text x="341" y="250" class="s-seat-n">10</text>
    </a>
    <use xlink:href="#side" class="s-side" x="320" y="289"></use>
    <use xlink:href="#side" class="s-side" x="380" y="0"></use>
    <a xlink:href="javascript:void(0);" class="male not-single-seat ins-init-condition-tracking" obilet:seat="18" obilet:pricing="1" obilet:available="no" obilet:childwarning="False">
        <use xlink:href="#seat" x="380" y="20" class="s-seat" width="53" height="49"></use>
        <text x="401" y="50" class="s-seat-n">18</text>
    </a>
    <a xlink:href="javascript:void(0);" class="male not-single-seat ins-init-condition-tracking" obilet:seat="17" obilet:pricing="1" obilet:available="no" obilet:childwarning="False">
        <use xlink:href="#seat" x="380" y="70" class="s-seat" width="53" height="49"></use>
        <text x="401" y="100" class="s-seat-n">17</text>
    </a>
    <a xlink:href="javascript:void(0);" class="male single-seat ins-init-condition-tracking" obilet:seat="13" obilet:pricing="1" obilet:available="no" obilet:childwarning="False">
        <use xlink:href="#seat" x="380" y="220" class="s-seat" width="53" height="49"></use>
        <text x="401" y="250" class="s-seat-n">13</text>
    </a>
    <use xlink:href="#side" class="s-side" x="380" y="289"></use>
    <use xlink:href="#side" class="s-side" x="440" y="0"></use>
    <a xlink:href="javascript:void(0);" class="female single-seat ins-init-condition-tracking" obilet:seat="16" obilet:pricing="1" obilet:available="no" obilet:childwarning="False">
        <use xlink:href="#seat" x="440" y="220" class="s-seat" width="53" height="49"></use>
        <text x="461" y="250" class="s-seat-n">16</text>
    </a>
    <use xlink:href="#side" class="s-side" x="440" y="289"></use>
    <use xlink:href="#side" class="s-side" x="500" y="0"></use>
    <a xlink:href="javascript:void(0);" class="female not-single-seat ins-init-condition-tracking" obilet:seat="21" obilet:pricing="1" obilet:available="no" obilet:childwarning="False">
        <use xlink:href="#seat" x="500" y="20" class="s-seat" width="53" height="49"></use>
        <text x="521" y="50" class="s-seat-n">21</text>
    </a>
    <a xlink:href="javascript:void(0);" class="female not-single-seat ins-init-condition-tracking" obilet:seat="20" obilet:pricing="1" obilet:available="no" obilet:childwarning="False">
        <use xlink:href="#seat" x="500" y="70" class="s-seat" width="53" height="49"></use>
        <text x="521" y="100" class="s-seat-n">20</text>
    </a>
    <a xlink:href="javascript:void(0);" class="male single-seat ins-init-condition-tracking" obilet:seat="19" obilet:pricing="1" obilet:available="no" obilet:childwarning="False">
        <use xlink:href="#seat" x="500" y="220" class="s-seat" width="53" height="49"></use>
        <text x="521" y="250" class="s-seat-n">19</text>
    </a>
    <use xlink:href="#side" class="s-side" x="500" y="289"></use>
    <use xlink:href="#side" class="s-side" x="560" y="0"></use>
    <a xlink:href="javascript:void(0);" class="male not-single-seat ins-init-condition-tracking" obilet:seat="24" obilet:pricing="1" obilet:available="no" obilet:childwarning="False">
        <use xlink:href="#seat" x="560" y="20" class="s-seat" width="53" height="49"></use>
        <text x="581" y="50" class="s-seat-n">24</text>
    </a>
    <a xlink:href="javascript:void(0);" class="male not-single-seat ins-init-condition-tracking" obilet:seat="23" obilet:pricing="1" obilet:available="no" obilet:childwarning="False">
        <use xlink:href="#seat" x="560" y="70" class="s-seat" width="53" height="49"></use>
        <text x="581" y="100" class="s-seat-n">23</text>
    </a>
    <a xlink:href="javascript:void(0);" class="male single-seat ins-init-condition-tracking" obilet:seat="22" obilet:pricing="1" obilet:available="no" obilet:childwarning="False">
        <use xlink:href="#seat" x="560" y="220" class="s-seat" width="53" height="49"></use>
        <text x="581" y="250" class="s-seat-n">22</text>
    </a>
    <use xlink:href="#side" class="s-side" x="560" y="289"></use>
    <use xlink:href="#side" class="s-side" x="620" y="0"></use>
    <a xlink:href="javascript:void(0);" class="male not-single-seat ins-init-condition-tracking" obilet:seat="27" obilet:pricing="1" obilet:available="no" obilet:childwarning="False">
        <use xlink:href="#seat" x="620" y="20" class="s-seat" width="53" height="49"></use>
        <text x="641" y="50" class="s-seat-n">27</text>
    </a>
    <a xlink:href="javascript:void(0);" class="male not-single-seat ins-init-condition-tracking" obilet:seat="26" obilet:pricing="1" obilet:available="no" obilet:childwarning="False">
        <use xlink:href="#seat" x="620" y="70" class="s-seat" width="53" height="49"></use>
        <text x="641" y="100" class="s-seat-n">26</text>
    </a>
    <a xlink:href="javascript:void(0);" class="male single-seat ins-init-condition-tracking" obilet:seat="25" obilet:pricing="1" obilet:available="no" obilet:childwarning="False">
        <use xlink:href="#seat" x="620" y="220" class="s-seat" width="53" height="49"></use>
        <text x="641" y="250" class="s-seat-n">25</text>
    </a>
    <use xlink:href="#side" class="s-side" x="620" y="289"></use>
    <use xlink:href="#side" class="s-side" x="680" y="0"></use>
    <a xlink:href="javascript:void(0);" class="available active not-single-seat ins-init-condition-tracking" obilet:seat="30" obilet:pricing="1" obilet:available="all" obilet:childwarning="False">
        <use xlink:href="#seat" x="680" y="20" class="s-seat" width="53" height="49"></use>
        <text x="701" y="50" class="s-seat-n">30</text>
    </a>
    <a xlink:href="javascript:void(0);" class="available active not-single-seat ins-init-condition-tracking" obilet:seat="29" obilet:pricing="1" obilet:available="all" obilet:childwarning="False">
        <use xlink:href="#seat" x="680" y="70" class="s-seat" width="53" height="49"></use>
        <text x="701" y="100" class="s-seat-n">29</text>
    </a>
    <a xlink:href="javascript:void(0);" class="male single-seat ins-init-condition-tracking" obilet:seat="28" obilet:pricing="1" obilet:available="no" obilet:childwarning="False">
        <use xlink:href="#seat" x="680" y="220" class="s-seat" width="53" height="49"></use>
        <text x="701" y="250" class="s-seat-n">28</text>
    </a>
    <use xlink:href="#side" class="s-side" x="680" y="289"></use>
    <use xlink:href="#side" class="s-side" x="740" y="0"></use>
    <a xlink:href="javascript:void(0);" class="male not-single-seat ins-init-condition-tracking" obilet:seat="33" obilet:pricing="1" obilet:available="no" obilet:childwarning="False">
        <use xlink:href="#seat" x="740" y="20" class="s-seat" width="53" height="49"></use>
        <text x="761" y="50" class="s-seat-n">33</text>
    </a>
    <a xlink:href="javascript:void(0);" class="male not-single-seat ins-init-condition-tracking" obilet:seat="32" obilet:pricing="1" obilet:available="no" obilet:childwarning="False">
        <use xlink:href="#seat" x="740" y="70" class="s-seat" width="53" height="49"></use>
        <text x="761" y="100" class="s-seat-n">32</text>
    </a>
    <a xlink:href="javascript:void(0);" class="male single-seat ins-init-condition-tracking" obilet:seat="31" obilet:pricing="1" obilet:available="no" obilet:childwarning="False">
        <use xlink:href="#seat" x="740" y="220" class="s-seat" width="53" height="49"></use>
        <text x="761" y="250" class="s-seat-n">31</text>
    </a>
    <use xlink:href="#side" class="s-side" x="740" y="289"></use>
    <use xlink:href="#side" class="s-side" x="800" y="0"></use>
    <a xlink:href="javascript:void(0);" class="male not-single-seat ins-init-condition-tracking" obilet:seat="36" obilet:pricing="1" obilet:available="no" obilet:childwarning="False">
        <use xlink:href="#seat" x="800" y="20" class="s-seat" width="53" height="49"></use>
        <text x="821" y="50" class="s-seat-n">36</text>
    </a>
    <a xlink:href="javascript:void(0);" class="male not-single-seat ins-init-condition-tracking" obilet:seat="35" obilet:pricing="1" obilet:available="no" obilet:childwarning="False">
        <use xlink:href="#seat" x="800" y="70" class="s-seat" width="53" height="49"></use>
        <text x="821" y="100" class="s-seat-n">35</text>
    </a>
    <a xlink:href="javascript:void(0);" class="male single-seat ins-init-condition-tracking" obilet:seat="34" obilet:pricing="1" obilet:available="no" obilet:childwarning="False">
        <use xlink:href="#seat" x="800" y="220" class="s-seat" width="53" height="49"></use>
        <text x="821" y="250" class="s-seat-n">34</text>
    </a>
    <use xlink:href="#side" class="s-side" x="800" y="289"></use>
    <use xlink:href="#side" class="s-side" x="860" y="0"></use>
    <a xlink:href="javascript:void(0);" class="available active not-single-seat ins-init-condition-tracking" obilet:seat="40" obilet:pricing="1" obilet:available="all" obilet:childwarning="False">
        <use xlink:href="#seat" x="860" y="20" class="s-seat" width="53" height="49"></use>
        <text x="881" y="50" class="s-seat-n">40</text>
    </a>
    <a xlink:href="javascript:void(0);" class="available active not-single-seat ins-init-condition-tracking" obilet:seat="39" obilet:pricing="1" obilet:available="all" obilet:childwarning="False">
        <use xlink:href="#seat" x="860" y="70" class="s-seat" width="53" height="49"></use>
        <text x="881" y="100" class="s-seat-n">39</text>
    </a>
    <a xlink:href="javascript:void(0);" class="available active not-single-seat ins-init-condition-tracking" obilet:seat="38" obilet:pricing="1" obilet:available="all" obilet:childwarning="False">
        <use xlink:href="#seat" x="860" y="170" class="s-seat" width="53" height="49"></use>
        <text x="881" y="200" class="s-seat-n">38</text>
    </a>
    <a xlink:href="javascript:void(0);" class="available active not-single-seat ins-init-condition-tracking" obilet:seat="37" obilet:pricing="1" obilet:available="all" obilet:childwarning="False">
        <use xlink:href="#seat" x="860" y="220" class="s-seat" width="53" height="49"></use>
        <text x="881" y="250" class="s-seat-n">37</text>
    </a>
    <use xlink:href="#side" class="s-side" x="860" y="289"></use>
    <text x="140" y="150" class="warning visible"></text>

</svg>